<svg fill="#269db5" id="_x31_px" enable-background="new 0 0 24 24" height="512" viewBox="0 0 24 24" width="512" xmlns="http://www.w3.org/2000/svg"><path d="m22.5 20h-21c-.827 0-1.5-.673-1.5-1.5v-13c0-.827.673-1.5 1.5-1.5h5c.277 0 .5.224.5.5s-.223.5-.5.5h-5c-.276 0-.5.224-.5.5v13c0 .276.224.5.5.5h21c.276 0 .5-.224.5-.5v-11c0-.276.224-.5.5-.5s.5.224.5.5v11c0 .827-.673 1.5-1.5 1.5z"/><path d="m16.5 24h-9c-.276 0-.5-.224-.5-.5s.224-.5.5-.5h9c.276 0 .5.224.5.5s-.224.5-.5.5z"/><path d="m10.5 24c-.276 0-.5-.224-.5-.5v-4c0-.276.224-.5.5-.5s.5.224.5.5v4c0 .276-.224.5-.5.5z"/><path d="m13.5 24c-.276 0-.5-.224-.5-.5v-4c0-.276.224-.5.5-.5s.5.224.5.5v4c0 .276-.224.5-.5.5z"/><path d="m14 10c-.13 0-.258-.051-.354-.146l-4.5-4.5c-.195-.195-.195-.512 0-.707l4.5-4.5c.143-.144.358-.186.545-.108.187.076.309.259.309.461v2.5h6c1.378 0 2.5-1.122 2.5-2.5 0-.276.224-.5.5-.5s.5.224.5.5v1c0 3.033-2.467 5.5-5.5 5.5h-4v2.5c0 .202-.122.385-.309.462-.062.026-.127.038-.191.038zm-3.793-5 3.293 3.293v-1.793c0-.276.224-.5.5-.5h4.5c1.853 0 3.449-1.126 4.137-2.73-.591.458-1.333.73-2.137.73h-6.5c-.276 0-.5-.224-.5-.5v-1.793z"/></svg>