<svg fill="#269db5" id="_x31__px" height="512" viewBox="0 0 24 24" width="512" xmlns="http://www.w3.org/2000/svg"><g><path d="m16.5 24h-1c-.827 0-1.5-.673-1.5-1.5v-.5h-5v.5c0 .827-.673 1.5-1.5 1.5h-1c-.827 0-1.5-.673-1.5-1.5v-1.528c-1.427-.905-2.433-2.324-2.819-3.972h-.681c-.827 0-1.5-.673-1.5-1.5v-2c0-.827.673-1.5 1.5-1.5h1.526c.247-.389.542-.756.88-1.094.34-.339.707-.634 1.094-.879v-3.527c0-.146.063-.284.174-.379.111-.094.257-.137.401-.115 2.213.336 3.507 1.343 3.854 2.994h1.071c.276 0 .5.224.5.5s-.224.5-.5.5h-1.5c-.257 0-.472-.194-.497-.449-.13-1.278-.951-2.082-2.503-2.447v3.206c0 .18-.097.347-.254.436-.402.227-.784.519-1.133.868-.352.351-.636.722-.869 1.133-.089.156-.255.253-.434.253h-1.81c-.275 0-.5.224-.5.5v2c0 .276.225.5.5.5h1.09c.244 0 .453.176.493.417.272 1.625 1.244 3.024 2.665 3.838.156.09.252.256.252.435v1.81c0 .276.225.5.5.5h1c.275 0 .5-.224.5-.5v-1c0-.276.224-.5.5-.5h6c.276 0 .5.224.5.5v1c0 .276.225.5.5.5h1c.275 0 .5-.224.5-.5v-1.81c0-.18.097-.347.254-.436.402-.227.784-.519 1.133-.868 1.017-1.007 1.585-2.354 1.604-3.792.004-.276.202-.537.506-.494.276.003.498.23.494.506-.021 1.703-.695 3.297-1.898 4.489-.338.338-.705.633-1.092.878v1.527c-.001.827-.674 1.5-1.501 1.5z"/></g><g><path d="m22.5 16h-2c-.276 0-.5-.224-.5-.5s.224-.5.5-.5h2c.275 0 .5-.224.5-.5s-.225-.5-.5-.5c-.276 0-.5-.224-.5-.5s.224-.5.5-.5c.827 0 1.5.673 1.5 1.5s-.673 1.5-1.5 1.5z"/></g><g><path d="m18 14c-.066 0-.132-.013-.194-.04-.238-.099-5.806-2.506-5.806-7.424v-4.179c0-.214.137-.405.34-.474l5.5-1.857c.104-.035.217-.035.32 0l5.5 1.857c.203.069.34.26.34.474v4.179c0 4.918-5.568 7.325-5.806 7.425-.062.026-.128.039-.194.039zm-5-11.284v3.82c0 3.785 4.055 5.958 5 6.414.944-.457 5-2.638 5-6.414v-3.82l-5-1.688z"/></g><g><path d="m17.5 9c-.009 0-.019 0-.027-.001-.143-.008-.274-.076-.363-.187l-2-2.5c-.172-.216-.138-.53.078-.703.217-.172.53-.137.703.078l1.65 2.064 3.105-3.105c.195-.195.512-.195.707 0s.195.512 0 .707l-3.5 3.5c-.093.095-.221.147-.353.147z"/></g></svg>