<svg fill="#269db5" id="Capa_1" enable-background="new 0 0 512 512" height="512" viewBox="0 0 512 512" width="512" xmlns="http://www.w3.org/2000/svg"><g><g id="XMLID_7_"><g><g><circle cx="100" cy="337" r="10"/></g><g><circle cx="100" cy="427" r="10"/></g></g><path d="m502 182c5.523 0 10-4.478 10-10v-162c0-5.522-4.477-10-10-10h-75c-5.523 0-10 4.478-10 10s4.477 10 10 10h65v142h-220v-142h65c5.523 0 10-4.478 10-10s-4.477-10-10-10h-75c-5.523 0-10 4.478-10 10v162c0 5.522 4.477 10 10 10h110v40h-222.381c3.415-5.888 5.381-12.717 5.381-20v-24.607c26.844-10.233 45-36.092 45-65.393 0-5.522-4.477-10-10-10h-30c-7.373 0-14.67 1.172-21.618 3.424-3.899-22.827-14.74-43.924-31.312-60.495-3.905-3.904-10.236-3.904-14.142 0-16.57 16.571-27.411 37.668-31.31 60.495-6.948-2.252-14.245-3.424-21.618-3.424h-30c-5.523 0-10 4.478-10 10 0 29.298 18.152 55.155 45 65.392v24.608c0 7.283 1.966 14.112 5.381 20h-40.381c-5.523 0-10 4.478-10 10v270c0 5.522 4.477 10 10 10s10-4.478 10-10v-20h160v20c0 5.522 4.477 10 10 10s10-4.478 10-10v-200h292v200c0 5.522 4.477 10 10 10s10-4.478 10-10v-270c0-5.522-4.477-10-10-10h-110v-40zm-323.003-60c-3.752 18.464-17.711 33.594-36.479 38.423-4.084 1.047-8.296 1.577-12.518 1.577h-18.981c2.841-13.816 11.471-26.049 23.914-33.272 7.577-4.402 16.246-6.728 25.067-6.728zm-78.997-55.001c10.932 13.766 17.682 30.342 19.495 47.916-7.961 5.664-14.566 12.89-19.494 21.115-4.929-8.224-11.533-15.451-19.495-21.115 1.812-17.574 8.562-34.15 19.494-47.916zm-78.997 55.001h18.997c8.821 0 17.49 2.326 25.069 6.729 12.442 7.222 21.071 19.455 23.912 33.271h-18.981c-4.222 0-8.434-.53-12.508-1.574-18.776-4.832-32.737-19.962-36.489-38.426zm43.997 80v-20.185c1.663.118 3.331.185 5 .185 0 0 63.336-.066 65-.185v20.185c0 11.028-8.972 20-20 20h-30c-11.028 0-20-8.972-20-20zm115 170h-160v-70h160zm-160 20h160v70h-160zm472-150v40h-472v-40"/></g><g><circle cx="382" cy="10" r="10"/></g></g></svg>